PathFileType	4	(X/Y/Z)	0_1_26_p0_0-249.trc
DataRate	CameraRate	NumFrames	NumMarkers	Units	OrigDataRate	OrigDataStartFrame	OrigNumFrames
60	60	6	27	m	60	186	249
Frame#	Time	RHip			RKnee			RAnkle			RBigToe			RSmallToe			RHeel			LHip			LKnee			LAnkle			LBigToe			LSmallToe			LHeel			Neck			Head			Nose			RShoulder			RElbow			RWrist			RThumb			RIndex			RPinky			LShoulder			LElbow			LWrist			LThumb			LIndex			LPinky		
		X1	Y1	Z1	X2	Y2	Z2	X3	Y3	Z3	X4	Y4	Z4	X5	Y5	Z5	X6	Y6	Z6	X7	Y7	Z7	X8	Y8	Z8	X9	Y9	Z9	X10	Y10	Z10	X11	Y11	Z11	X12	Y12	Z12	X13	Y13	Z13	X14	Y14	Z14	X15	Y15	Z15	X16	Y16	Z16	X17	Y17	Z17	X18	Y18	Z18	X19	Y19	Z19	X20	Y20	Z20	X21	Y21	Z21	X22	Y22	Z22	X23	Y23	Z23	X24	Y24	Z24	X25	Y25	Z25	X26	Y26	Z26	X27	Y27	Z27
187	3.1166666666666667	0.13021387340420496	0.17572272970953204	0.04942116036407926	0.14384758118095203	0.17669805669100525	-0.38906659835261986	0.16024611783207474	0.1996536590520791	-0.7900106846369642	0.1876969412439978	0.05573240586549598	-0.7832687994930848	0.12310664039388367	0.05816040347140493	-0.7756121696148295	0.17386788510056042	0.2383011687505776	-0.8450549332583519	0.34049388167740113	0.1804866911668583	0.05314448655860899	0.33803630212273555	0.12739617030490535	-0.36022885517241776	0.3414739568644622	0.2268250971580095	-0.8249298549755603	0.32841790574871943	0.043739105328083304	-0.7726999102454549	0.37613695149441806	0.09627690219693609	-0.7929659587738683	0.3288192376880807	0.28097509530676457	-0.878978791276037	0.20718683565041707	0.20135446844207416	0.5653316089612824	0.18049778145311787	0.18787732112515237	0.8108695448539558	0.18223970657025612	0.13116371545694094	0.6873086170979218	0.06644483061051172	0.19541057666742404	0.48027468736758105	0.008573797777765648	0.2313743531366294	0.2210818306974251	0.026988598024717682	0.06069900323525906	0.06479380680580765	0.07041872737181425	-0.06008795871032293	0.012213084531469697	0.05207200561100279	-0.06191596782817042	0.00015953885986030628	0.03151413174984079	0.045204473006369664	-0.04845340667907484	0.3554620716396619	0.22032300285799503	0.5006479057727351	0.4452907763332102	0.24265981000181835	0.2804968204931013	0.3687574271260011	0.08151467933666724	0.16216952638762977	0.2925647887607575	0.05881117469249384	0.1014686934411997	0.3033233001389277	0.005288683513023957	0.09499769254695914	0.3451198189790544	0.023736327395224913	0.0807595258789081
188	3.1333333333333333	0.13005528531341326	0.17617374709995035	0.0490888684724337	0.13939624098212605	0.16281216812956373	-0.37579604556058227	0.16026723367166523	0.1995587523668083	-0.789932343585458	0.18816279681056827	0.05488597422480416	-0.7827266748104836	0.12340922107040683	0.057658108312827965	-0.7844759083117426	0.1738861903680099	0.23813498246528314	-0.8447973587527067	0.3404943494416467	0.1805491168345086	0.05291251580778151	0.3377311164411279	0.12591325745949528	-0.3639905099901527	0.34142795630299866	0.22663457051476313	-0.8247095277534978	0.3293443267061461	0.04317061442694671	-0.7769379691708522	0.37188892930647144	0.09884140588256372	-0.7946917753987384	0.32861270797194947	0.2803110906097695	-0.8784383222993215	0.21195221196245428	0.21410926311197154	0.5624545233011743	0.1805011124551443	0.1869785980603977	0.8076511660220048	0.18231741936432602	0.13119678379538602	0.6873458755383023	0.06324140989164698	0.2062386836670224	0.4775399540717004	0.0007038783290961922	0.2457665101184053	0.22011669608117926	0.035408067382069	0.0858404991418874	0.05321600911251747	0.07410568823585456	-0.048162781911504554	0.006072338993108066	0.04682341919953025	-0.042476787790898786	-0.011888749037380353	0.030521697137726584	0.0606584966490092	-0.060699847861074116	0.3515290982572929	0.2219649897678689	0.5002435330325764	0.443330915578297	0.25384407686903443	0.2722719831129931	0.365114555632795	0.08288476041159784	0.15747396973599598	0.29290904621913644	0.05686816419478147	0.09432753805735894	0.3030857696031367	0.004564562578990401	0.09063794244724746	0.3425885931104459	0.03293520765027717	0.06893824696886229
189	3.15	0.13032117882612146	0.17563715661356782	0.05372947953520724	0.13943125281382884	0.1628390325305708	-0.3757660177687699	0.15936044899824864	0.20036966143255927	-0.7855570767920337	0.1880769814613876	0.05578796784498218	-0.7833113867712661	0.12059060098773162	0.07061962213339547	-0.78002258910224	0.17292041996182003	0.2387988538331334	-0.8402006798684665	0.34006358476177334	0.18121349773220535	0.05680609870067502	0.33816986399839466	0.1250064040259069	-0.35880496035335635	0.342022103512451	0.22542439968109051	-0.818963533465023	0.3284767961004013	0.04393825543548799	-0.772808617269272	0.3753079536458262	0.09731676298423726	-0.789087214882453	0.32870836662182296	0.2801069791397099	-0.8782574332147445	0.2071564622935743	0.20169583074615752	0.5654877962294743	0.18042196390173126	0.1870409860533861	0.8076212825443039	0.18236168692051752	0.1313054679815276	0.6873897099625654	0.06331455563411217	0.20706442587829252	0.4809790190781363	0.0005918870257697608	0.24608675718682663	0.2200091167202956	0.03210773103762325	0.09871430311910229	0.04744320108146326	0.07970038455903461	-0.013886965029858325	-0.010721304430508899	0.05792372363342352	-0.004358507981097185	-0.03088711811190754	0.030763220139445224	0.06489494866806383	-0.06770473085502209	0.3514442311352972	0.22127136828098007	0.4966951289706945	0.4393100366312437	0.25661338627077196	0.27125967782816784	0.36464631595103136	0.08198924323899064	0.14976213994806917	0.29340345268540896	0.05494165458148447	0.0823486139158132	0.30999354728818834	0.002925324157073946	0.08246406695671774	0.3443410587975825	0.04347920452078672	0.0524366378062906
190	3.1666666666666665	0.13458119290225684	0.18914154302768024	0.052317311889026635	0.139436808692911	0.16310163974537695	-0.37573620806895847	0.16025617827539737	0.1997533816295799	-0.7899968710413035	0.18782496181444733	0.055848094354155324	-0.7833579840210124	0.12310496318419904	0.058165966971117485	-0.775701937647555	0.1729269978222957	0.23900509984243792	-0.8402966133472097	0.336202133550433	0.1834129735250975	0.05598553098937147	0.33843441085347703	0.12682621247579998	-0.355131805934273	0.3420104858045489	0.22541340160476392	-0.8189405539056007	0.32846805689298986	0.04397425025319988	-0.7727664264421658	0.370995799173068	0.09959230802262517	-0.790585195446054	0.3285869693263732	0.28061322138102834	-0.8785715004731913	0.21188772656849847	0.21438396010387212	0.5625119355040813	0.1804861753761908	0.18698594531000245	0.8076366556307837	0.18230331662992605	0.13137149050871325	0.6873286134534934	0.06328509112461976	0.20733736986275797	0.48106661136195283	0.0002812682430904463	0.24711253361531801	0.22338419120860217	0.03607620655991208	0.11057415669016711	0.03782724742178205	0.07734666044244944	-0.0016664123399107143	-0.016854243782269743	0.05899481425133284	0.019175954661218148	-0.04561473504761452	0.034865515694978505	0.07868721755952308	-0.07489405360604286	0.35139489233946464	0.22139166258500576	0.49669367772599643	0.4391518295265794	0.25678161764410123	0.2712041142977431	0.36488921631866883	0.079880705956109	0.14278873707053558	0.297593015892007	0.05158210222419023	0.07900289634917415	0.31033762980007157	0.0011446616481679515	0.07535356101697331	0.347633626186096	0.04063838731344645	0.04917152627029393
191	3.183333333333333	0.13038607667921534	0.1915993858937038	0.04717029867414735	0.1380331307339692	0.1647264559602045	-0.3773196828973687	0.15940832678749878	0.20036333547471788	-0.7856741728146565	0.18777067877291606	0.05562484653721186	-0.7832823050849942	0.12233622209788676	0.059211608568523005	-0.7804948194263113	0.17299651556718582	0.2386853245913802	-0.8403024001710454	0.335932527343506	0.18367463810849713	0.05143492502899131	0.33331681874971086	0.1305674831249624	-0.357429733350034	0.3392210249926952	0.23987169685268614	-0.8339902495726249	0.32849424257148757	0.04402528096633632	-0.7728870231860689	0.37701924802696973	0.11313944335209565	-0.800917499970077	0.3285719214278763	0.2806223484861463	-0.8786217069129925	0.21190671141119607	0.2144011468361198	0.5624273169914948	0.18052400236685567	0.18812303233874667	0.8108171095501427	0.18225028357706136	0.1314525616602837	0.6872888751189552	0.059335760662744375	0.20975947754262317	0.4803630425814363	-0.0028063848268233813	0.2582309783531947	0.2159867197278046	0.029914279438023564	0.13321340826467903	0.02396962461665273	0.07906258837916559	0.019294766149834365	-0.034651163448812895	0.06307707774584918	0.03286444243949419	-0.05289379672521243	0.03934352518792815	0.07902842272324091	-0.07568735700891592	0.3513434334751762	0.2215268394244363	0.4966062131628544	0.43908256946912755	0.2565494222594698	0.271083435417355	0.364715656758388	0.07835672659447308	0.13948599931966646	0.29662205594630053	0.05209347018366096	0.07354344074893333	0.30759789149992844	0.010610432090692882	0.06733553796717118	0.34876964851513537	0.02685070553019729	0.05421457327111747
192	3.2	0.13038395075365278	0.19282173316739099	0.05020549280276013	0.13861154493125993	0.1638040190059554	-0.3717800453977272	0.16030973573893906	0.19950889389102822	-0.7899804880810246	0.18765707704334825	0.05561483834580336	-0.7833535242607647	0.12317870497930301	0.0581615654023306	-0.784744137705951	0.17297200719513314	0.23840711859770752	-0.8403443392351251	0.3354251138735756	0.18456041672388476	0.05547276564208604	0.3315191438000419	0.14151041799345124	-0.35872216664440176	0.3392248796138276	0.23997524224442784	-0.8340661080596722	0.32846480366271197	0.04388492740722309	-0.7727639603961763	0.3709690044472015	0.09979037723323245	-0.7906160251313463	0.328551411047541	0.28141031087893886	-0.8791351821987248	0.2078876033701371	0.21660924197492495	0.5620132688537823	0.18041944616421518	0.1873476763272538	0.8076134836300253	0.18229349123553207	0.1316174893640631	0.6872830357775146	0.05925610354314688	0.2099261970790938	0.48043638782913084	-0.00291103250162385	0.25836115412783295	0.2159405647061224	0.030199871556055292	0.1337556774286389	0.023835837960311784	0.08045174391286117	0.0442302946190362	-0.038632949967421754	0.06523328322470087	0.054133634453721824	-0.060056726427448255	0.037046477358635574	0.08907763421018917	-0.08040793849720013	0.3513947106243541	0.22247385949008372	0.5000944873370738	0.438922866822821	0.25678294965831844	0.27101318503853095	0.3644815401558194	0.07736292144000985	0.13603814697077252	0.2941282606337756	0.06252079828880543	0.06518164659556794	0.3055701740149784	0.0204413646920257	0.059020773948989254	0.34920445123169264	0.023566500814543184	0.049117528230225284
